<?xml version="1.0" encoding="UTF-8" standalone="no"?>
<!-- Created with Inkscape (http://www.inkscape.org/) -->

<svg
   xmlns:dc="http://purl.org/dc/elements/1.1/"
   xmlns:cc="http://creativecommons.org/ns#"
   xmlns:rdf="http://www.w3.org/1999/02/22-rdf-syntax-ns#"
   xmlns:svg="http://www.w3.org/2000/svg"
   xmlns="http://www.w3.org/2000/svg"
   xmlns:xlink="http://www.w3.org/1999/xlink"
   xmlns:sodipodi="http://sodipodi.sourceforge.net/DTD/sodipodi-0.dtd"
   xmlns:inkscape="http://www.inkscape.org/namespaces/inkscape"
   width="512"
   height="512"
   id="svg2"
   version="1.1"
   inkscape:version="0.48.3.1 r9886"
   sodipodi:docname="新規ドキュメント 1">
  <defs
     id="defs4">
    <linearGradient
       id="linearGradient7294">
      <stop
         style="stop-color:#ffffff;stop-opacity:1;"
         offset="0"
         id="stop7296" />
      <stop
         style="stop-color:#dfebff;stop-opacity:1;"
         offset="1"
         id="stop7298" />
    </linearGradient>
    <linearGradient
       inkscape:collect="always"
       id="linearGradient5747">
      <stop
         style="stop-color:#000000;stop-opacity:1;"
         offset="0"
         id="stop5749" />
      <stop
         style="stop-color:#000000;stop-opacity:0;"
         offset="1"
         id="stop5751" />
    </linearGradient>
    <linearGradient
       id="linearGradient5735">
      <stop
         id="stop5737"
         offset="0"
         style="stop-color:#e9ffff;stop-opacity:1;" />
      <stop
         id="stop5739"
         offset="1"
         style="stop-color:#00005d;stop-opacity:1;" />
    </linearGradient>
    <linearGradient
       id="linearGradient5719">
      <stop
         style="stop-color:#3097ff;stop-opacity:1;"
         offset="0"
         id="stop5721" />
      <stop
         style="stop-color:#0d1d99;stop-opacity:1;"
         offset="1"
         id="stop5723" />
    </linearGradient>
    <marker
       inkscape:stockid="TriangleOutS"
       orient="auto"
       refY="0.0"
       refX="0.0"
       id="TriangleOutS"
       style="overflow:visible">
      <path
         id="path3974"
         d="M 5.77,0.0 L -2.88,5.0 L -2.88,-5.0 L 5.77,0.0 z "
         style="fill-rule:evenodd;stroke:#000000;stroke-width:1.0pt"
         transform="scale(0.2)" />
    </marker>
    <inkscape:perspective
       sodipodi:type="inkscape:persp3d"
       inkscape:vp_x="-24.528302 : 146.56604 : 1"
       inkscape:vp_y="0 : 1000 : 0"
       inkscape:vp_z="487.4717 : 146.56604 : 1"
       inkscape:persp3d-origin="231.4717 : 61.232708 : 1"
       id="perspective2987" />
    <linearGradient
       inkscape:collect="always"
       xlink:href="#linearGradient5719"
       id="linearGradient5725"
       x1="234.31282"
       y1="228.51607"
       x2="234.31282"
       y2="993.00067"
       gradientUnits="userSpaceOnUse"
       gradientTransform="matrix(1.2127788,0,0,1.3489335,-1291.2375,344.19961)" />
    <linearGradient
       inkscape:collect="always"
       xlink:href="#linearGradient5735"
       id="linearGradient5733"
       x1="136.91887"
       y1="197.16324"
       x2="136.91887"
       y2="706.8139"
       gradientUnits="userSpaceOnUse"
       gradientTransform="translate(-1106.6938,463.62314)" />
    <linearGradient
       inkscape:collect="always"
       xlink:href="#linearGradient5747"
       id="linearGradient5753"
       x1="-156.53797"
       y1="473.57293"
       x2="241.56803"
       y2="473.57293"
       gradientUnits="userSpaceOnUse" />
    <filter
       inkscape:collect="always"
       id="filter7036">
      <feGaussianBlur
         inkscape:collect="always"
         stdDeviation="1.8025393"
         id="feGaussianBlur7038" />
    </filter>
    <linearGradient
       inkscape:collect="always"
       xlink:href="#linearGradient5719-0"
       id="linearGradient5725-3"
       x1="234.31282"
       y1="228.51607"
       x2="234.31282"
       y2="993.00067"
       gradientUnits="userSpaceOnUse"
       gradientTransform="matrix(1.2127788,0,0,1.3489335,-559.44865,-189.46588)" />
    <linearGradient
       id="linearGradient5719-0">
      <stop
         style="stop-color:#3097ff;stop-opacity:1;"
         offset="0"
         id="stop5721-4" />
      <stop
         style="stop-color:#0d1d99;stop-opacity:1;"
         offset="1"
         id="stop5723-5" />
    </linearGradient>
    <linearGradient
       inkscape:collect="always"
       xlink:href="#linearGradient5735-1"
       id="linearGradient5733-1"
       x1="136.91887"
       y1="197.16324"
       x2="136.91887"
       y2="706.8139"
       gradientUnits="userSpaceOnUse"
       gradientTransform="translate(-374.90499,-70.04235)" />
    <linearGradient
       id="linearGradient5735-1">
      <stop
         id="stop5737-9"
         offset="0"
         style="stop-color:#e9ffff;stop-opacity:1;" />
      <stop
         id="stop5739-7"
         offset="1"
         style="stop-color:#00005d;stop-opacity:1;" />
    </linearGradient>
    <linearGradient
       inkscape:collect="always"
       xlink:href="#linearGradient5719-0"
       id="linearGradient7163"
       gradientUnits="userSpaceOnUse"
       gradientTransform="matrix(1.2127788,0,0,1.3489335,-646.61802,-330.35704)"
       x1="234.31282"
       y1="228.51607"
       x2="234.31282"
       y2="993.00067" />
    <filter
       color-interpolation-filters="sRGB"
       inkscape:collect="always"
       id="filter7036-1">
      <feGaussianBlur
         inkscape:collect="always"
         stdDeviation="1.8025393"
         id="feGaussianBlur7038-8" />
    </filter>
    <linearGradient
       inkscape:collect="always"
       xlink:href="#linearGradient5719-6"
       id="linearGradient5725-36"
       x1="234.31282"
       y1="228.51607"
       x2="234.31282"
       y2="993.00067"
       gradientUnits="userSpaceOnUse"
       gradientTransform="matrix(1.2127788,0,0,1.3489335,-559.44865,-189.46588)" />
    <linearGradient
       id="linearGradient5719-6">
      <stop
         style="stop-color:#3097ff;stop-opacity:1;"
         offset="0"
         id="stop5721-3" />
      <stop
         style="stop-color:#0d1d99;stop-opacity:1;"
         offset="1"
         id="stop5723-7" />
    </linearGradient>
    <linearGradient
       inkscape:collect="always"
       xlink:href="#linearGradient5735-7"
       id="linearGradient5733-5"
       x1="136.91887"
       y1="197.16324"
       x2="136.91887"
       y2="706.8139"
       gradientUnits="userSpaceOnUse"
       gradientTransform="translate(-374.90499,-70.04235)" />
    <linearGradient
       id="linearGradient5735-7">
      <stop
         id="stop5737-7"
         offset="0"
         style="stop-color:#e9ffff;stop-opacity:1;" />
      <stop
         id="stop5739-1"
         offset="1"
         style="stop-color:#00005d;stop-opacity:1;" />
    </linearGradient>
    <linearGradient
       y2="993.00067"
       x2="234.31282"
       y1="228.51607"
       x1="234.31282"
       gradientTransform="matrix(1.2127788,0,0,1.3489335,-50.619666,228.95261)"
       gradientUnits="userSpaceOnUse"
       id="linearGradient7222"
       xlink:href="#linearGradient5719-6"
       inkscape:collect="always" />
    <linearGradient
       y2="706.8139"
       x2="136.91887"
       y1="197.16324"
       x1="136.91887"
       gradientTransform="translate(133.92403,348.37614)"
       gradientUnits="userSpaceOnUse"
       id="linearGradient7224"
       xlink:href="#linearGradient5735-7"
       inkscape:collect="always" />
    <filter
       inkscape:collect="always"
       id="filter7269">
      <feGaussianBlur
         inkscape:collect="always"
         stdDeviation="1.9745313"
         id="feGaussianBlur7271" />
    </filter>
    <filter
       inkscape:collect="always"
       id="filter7289">
      <feGaussianBlur
         inkscape:collect="always"
         stdDeviation="1.8025393"
         id="feGaussianBlur7291" />
    </filter>
    <linearGradient
       inkscape:collect="always"
       xlink:href="#linearGradient7294"
       id="linearGradient7300"
       x1="-1000.7059"
       y1="625.6806"
       x2="-1000.7059"
       y2="956.31244"
       gradientUnits="userSpaceOnUse"
       gradientTransform="translate(1252.6008,480.53358)" />
    <filter
       inkscape:collect="always"
       id="filter7332">
      <feGaussianBlur
         inkscape:collect="always"
         stdDeviation="3.1106144"
         id="feGaussianBlur7334" />
    </filter>
    <linearGradient
       inkscape:collect="always"
       xlink:href="#linearGradient7294"
       id="linearGradient7342"
       x1="255.49149"
       y1="634.40466"
       x2="255.49149"
       y2="964.16492"
       gradientUnits="userSpaceOnUse"
       gradientTransform="translate(1.627267,-5.825435)" />
  </defs>
  <sodipodi:namedview
     id="base"
     pagecolor="#ffffff"
     bordercolor="#666666"
     borderopacity="1.0"
     inkscape:pageopacity="0.0"
     inkscape:pageshadow="2"
     inkscape:zoom="0.93222944"
     inkscape:cx="220.89346"
     inkscape:cy="145.16738"
     inkscape:document-units="px"
     inkscape:current-layer="layer1"
     showgrid="false"
     inkscape:window-width="1231"
     inkscape:window-height="1000"
     inkscape:window-x="49"
     inkscape:window-y="24"
     inkscape:window-maximized="1" />
  <metadata
     id="metadata7">
    <rdf:RDF>
      <cc:Work
         rdf:about="">
        <dc:format>image/svg+xml</dc:format>
        <dc:type
           rdf:resource="http://purl.org/dc/dcmitype/StillImage" />
        <dc:title></dc:title>
      </cc:Work>
    </rdf:RDF>
  </metadata>
  <g
     inkscape:label="レイヤー 1"
     inkscape:groupmode="layer"
     id="layer1"
     transform="translate(0,-540.36218)">
    <rect
       style="fill:url(#linearGradient5725);fill-opacity:1;stroke:url(#linearGradient5733);stroke-width:2;stroke-linecap:butt;stroke-miterlimit:4;stroke-opacity:1;stroke-dasharray:none;stroke-dashoffset:0"
       id="rect5717"
       width="454.67081"
       height="437.32666"
       x="-1211.9532"
       y="692.94586"
       rx="24.255575"
       ry="26.97867" />
    <text
       xml:space="preserve"
       style="font-size:169.86308289px;font-style:normal;font-weight:normal;line-height:101.99999809%;letter-spacing:0px;word-spacing:0px;fill:#00007c;fill-opacity:1;stroke:none;font-family:Sans"
       x="111.64588"
       y="-95.280373"
       id="text5741-7"
       sodipodi:linespacing="102%"><tspan
         sodipodi:role="line"
         id="tspan5743-4"
         x="111.64588"
         y="-95.280373"
         style="font-style:normal;font-variant:normal;font-weight:normal;font-stretch:normal;text-align:center;line-height:101.99999809%;text-anchor:middle;fill:#00007c;fill-opacity:1;font-family:Ubuntu;-inkscape-font-specification:Ubuntu">Auto</tspan><tspan
         sodipodi:role="line"
         x="111.64588"
         y="77.979973"
         id="tspan5745-8"
         style="font-style:normal;font-variant:normal;font-weight:normal;font-stretch:normal;text-align:center;line-height:101.99999809%;text-anchor:middle;fill:#00007c;fill-opacity:1;font-family:Ubuntu;-inkscape-font-specification:Ubuntu">Login</tspan></text>
    <g
       style="font-size:169.86308289px;font-style:normal;font-weight:normal;line-height:101.99999809%;letter-spacing:0px;word-spacing:0px;fill:#ffffff;fill-opacity:1;stroke:none;filter:url(#filter6804);font-family:Sans"
       id="text5741"
       transform="translate(-1027.3061,424.26407)">
      <path
         d="m -23.24015,426.37888 c -1.925207,-5.09589 -3.737078,-10.07854 -5.435619,-14.94796 -1.698717,-4.98263 -3.453967,-10.02189 -5.265756,-15.11781 l -53.337008,0 -10.701374,30.06577 -17.156173,0 c 4.52968,-12.45662 8.77625,-23.95068 12.73973,-34.48221 3.963457,-10.64471 7.813683,-20.72324 11.550693,-30.23563 3.8502,-9.51226 7.643805,-18.57161 11.380826,-27.17809 3.736947,-8.71954 7.643794,-17.32593 11.720553,-25.81919 l 15.117814,0 c 4.076646,8.49326 7.983493,17.09965 11.720553,25.81919 3.736908,8.60648 7.473892,17.66583 11.210963,27.17809 3.85014,9.51239 7.756987,19.59092 11.720553,30.23563 3.96337,10.53153 8.2099424,22.02559 12.7397313,34.48221 l -18.0054863,0 m -15.457541,-43.65482 c -3.62382,-9.852 -7.247562,-19.36432 -10.871237,-28.53699 -3.510567,-9.28577 -7.190931,-18.17526 -11.041101,-26.66851 -3.963524,8.49325 -7.757129,17.38274 -11.380826,26.66851 -3.510545,9.17267 -7.021045,18.68499 -10.531511,28.53699 l 43.824675,0"
         style="font-variant:normal;font-stretch:normal;text-align:center;line-height:101.99999809%;text-anchor:middle;fill:#ffffff;font-family:Ubuntu;-inkscape-font-specification:Ubuntu"
         id="path6786"
         inkscape:connector-curvature="0" />
      <path
         d="m 77.231207,423.83093 c -3.623826,0.90594 -8.436608,1.86849 -14.438362,2.88767 -5.88865,1.01918 -12.739788,1.52877 -20.553433,1.52877 -6.794565,0 -12.513283,-0.96256 -17.156171,-2.88767 -4.642951,-2.03836 -8.379935,-4.86941 -11.210963,-8.49316 -2.83107,-3.62373 -4.8694245,-7.8703 -6.1150714,-12.73973 -1.2456758,-4.98262 -1.8685065,-10.47486 -1.8684939,-16.47672 l 0,-49.60002 15.7972663,0 0,46.20276 c -2.8e-5,10.75803 1.698601,18.45848 5.095893,23.10138 3.397225,4.64294 9.115943,6.9644 17.156171,6.96439 1.698579,10e-6 3.453829,-0.0566 5.265756,-0.16987 1.811815,-0.11323 3.510444,-0.22647 5.095892,-0.33972 1.585326,-0.22647 3.000851,-0.39634 4.246577,-0.50959 1.358838,-0.22647 2.321395,-0.45296 2.887673,-0.67945 l 0,-74.5699 15.797266,0 0,85.78086"
         style="font-variant:normal;font-stretch:normal;text-align:center;line-height:101.99999809%;text-anchor:middle;fill:#ffffff;font-family:Ubuntu;-inkscape-font-specification:Ubuntu"
         id="path6788"
         inkscape:connector-curvature="0" />
      <path
         d="m 119.22454,338.05007 33.46303,0 0,13.24932 -33.46303,0 0,40.76714 c -3e-5,4.41647 0.3397,8.09684 1.01918,11.0411 0.67942,2.83108 1.6986,5.09591 3.05753,6.79453 1.35887,1.5854 3.0575,2.71782 5.09589,3.39726 2.03832,0.67946 4.4164,1.01919 7.13425,1.01918 4.75612,10e-6 8.54973,-0.50958 11.38083,-1.52877 2.94424,-1.13241 4.98259,-1.9251 6.11507,-2.37808 l 3.05754,13.07945 c -1.58546,0.7927 -4.35988,1.75526 -8.32329,2.88768 -3.96353,1.24566 -8.49321,1.86849 -13.58905,1.86849 -6.00187,0 -10.98451,-0.73607 -14.94795,-2.20822 -3.85026,-1.58539 -6.96441,-3.90685 -9.34247,-6.96439 -2.3781,-3.05752 -4.07673,-6.79451 -5.09589,-11.21096 -0.90595,-4.52966 -1.35892,-9.73879 -1.35891,-15.6274 l 0,-78.81647 15.79727,-2.71781 0,27.34795"
         style="font-variant:normal;font-stretch:normal;text-align:center;line-height:101.99999809%;text-anchor:middle;fill:#ffffff;font-family:Ubuntu;-inkscape-font-specification:Ubuntu"
         id="path6790"
         inkscape:connector-curvature="0" />
      <path
         d="m 248.43463,382.21447 c -9e-5,7.02105 -1.01927,13.3626 -3.05753,19.02467 -2.03845,5.66212 -4.92612,10.53153 -8.66302,14.60822 -3.62382,4.07673 -7.98364,7.2475 -13.07946,9.51234 -5.09595,2.1516 -10.64481,3.22739 -16.64658,3.2274 -6.00187,-1e-5 -11.55073,-1.0758 -16.64658,-3.2274 -5.09592,-2.26484 -9.51236,-5.43561 -13.24932,-9.51234 -3.62377,-4.07669 -6.45481,-8.9461 -8.49316,-14.60822 -2.03836,-5.66207 -3.05754,-12.00362 -3.05753,-19.02467 -1e-5,-6.90771 1.01917,-13.19264 3.05753,-18.8548 2.03835,-5.77527 4.86939,-10.7013 8.49316,-14.77809 3.73696,-4.07663 8.1534,-7.19078 13.24932,-9.34247 5.09585,-2.26475 10.64471,-3.39717 16.64658,-3.39726 6.00177,9e-5 11.55063,1.13251 16.64658,3.39726 5.09582,2.15169 9.45564,5.26584 13.07946,9.34247 3.7369,4.07679 6.62457,9.00282 8.66302,14.77809 2.03826,5.66216 3.05744,11.94709 3.05753,18.8548 m -16.47672,0 c -7e-5,-9.96524 -2.26491,-17.83556 -6.79452,-23.61096 -4.4165,-5.88852 -10.47495,-8.83281 -18.17535,-8.83288 -7.7005,7e-5 -13.81557,2.94436 -18.34521,8.83288 -4.41647,5.7754 -6.62469,13.64572 -6.62466,23.61096 -3e-5,9.96534 2.20819,17.89228 6.62466,23.78084 4.52964,5.77536 10.64471,8.66302 18.34521,8.66301 7.7004,10e-6 13.75885,-2.88765 18.17535,-8.66301 4.52961,-5.88856 6.79445,-13.8155 6.79452,-23.78084"
         style="font-variant:normal;font-stretch:normal;text-align:center;line-height:101.99999809%;text-anchor:middle;fill:#ffffff;font-family:Ubuntu;-inkscape-font-specification:Ubuntu"
         id="path6792"
         inkscape:connector-curvature="0" />
      <path
         d="m -56.931431,585.37072 0,14.2685 -70.832909,0 0,-117.71512 16.47672,0 0,103.44662 54.356189,0"
         style="font-variant:normal;font-stretch:normal;text-align:center;line-height:101.99999809%;text-anchor:middle;fill:#ffffff;font-family:Ubuntu;-inkscape-font-specification:Ubuntu"
         id="path6794"
         inkscape:connector-curvature="0" />
      <path
         d="m 35.442238,555.47482 c -9.2e-5,7.02104 -1.019269,13.36259 -3.057536,19.02466 -2.038443,5.66212 -4.926112,10.53153 -8.663017,14.60823 -3.623822,4.07672 -7.983636,7.24749 -13.079457,9.51233 -5.0959543,2.1516 -10.64480942,3.22739 -16.6465822,3.2274 -6.0018728,-10e-6 -11.5507278,-1.0758 -16.6465818,-3.2274 -5.095921,-2.26484 -9.512357,-5.43561 -13.249321,-9.51233 -3.623762,-4.0767 -6.454811,-8.94611 -8.493154,-14.60823 -2.038367,-5.66207 -3.057544,-12.00362 -3.057535,-19.02466 -9e-6,-6.90772 1.019168,-13.19265 3.057535,-18.85481 2.038343,-5.77527 4.869392,-10.7013 8.493154,-14.77808 3.736964,-4.07664 8.1534,-7.19079 13.249321,-9.34247 5.095854,-2.26476 10.644709,-3.39718 16.6465818,-3.39727 6.00177278,9e-5 11.5506279,1.13251 16.6465822,3.39727 5.095821,2.15168 9.455635,5.26583 13.079457,9.34247 3.736905,4.07678 6.624574,9.00281 8.663017,14.77808 2.038267,5.66216 3.057444,11.94709 3.057536,18.85481 m -16.476719,0 c -7.5e-5,-9.96525 -2.264914,-17.83557 -6.794523,-23.61097 -4.4165044,-5.88852 -10.4749483,-8.83281 -18.1753502,-8.83288 -7.7005018,7e-5 -13.8155668,2.94436 -18.3452128,8.83288 -4.416468,5.7754 -6.624686,13.64572 -6.62466,23.61097 -2.6e-5,9.96533 2.208192,17.89227 6.62466,23.78083 4.529646,5.77536 10.644711,8.66303 18.3452128,8.66301 7.7004019,2e-5 13.7588458,-2.88765 18.1753502,-8.66301 4.529609,-5.88856 6.794448,-13.8155 6.794523,-23.78083"
         style="font-variant:normal;font-stretch:normal;text-align:center;line-height:101.99999809%;text-anchor:middle;fill:#ffffff;font-family:Ubuntu;-inkscape-font-specification:Ubuntu"
         id="path6796"
         inkscape:connector-curvature="0" />
      <path
         d="m 113.04313,590.80634 c -1.35897,0.90594 -4.02016,2.09498 -7.98357,3.56712 -3.85028,1.35891 -8.379961,2.03836 -13.589043,2.03836 -5.322419,0 -10.361685,-0.84931 -15.117815,-2.54795 -4.642951,-1.69862 -8.719661,-4.30319 -12.230142,-7.8137 -3.51052,-3.62373 -6.284947,-8.09678 -8.323291,-13.41918 -2.038366,-5.32235 -3.057544,-11.6639 -3.057535,-19.02467 -9e-6,-6.45474 0.962548,-12.34332 2.887672,-17.66576 1.925102,-5.43555 4.699529,-10.07847 8.323291,-13.92877 3.736965,-3.96339 8.266642,-7.02092 13.589047,-9.17261 5.322338,-2.26475 11.324161,-3.39717 18.005487,-3.39726 7.360679,9e-5 13.758849,0.5663 19.194529,1.69863 5.54878,1.01927 10.1917,1.98182 13.92877,2.88767 l 0,78.81647 c -8e-5,13.58904 -3.51058,23.44109 -10.53151,29.55618 -7.02107,6.11504 -17.66582,9.17257 -31.934259,9.17261 -5.548897,-4e-5 -10.814647,-0.453 -15.797266,-1.35891 -4.86943,-0.90596 -9.116003,-1.98176 -12.739732,-3.2274 l 2.887673,-13.75891 c 3.170758,1.24565 7.020984,2.32145 11.550689,3.2274 4.642892,1.01916 9.455674,1.52875 14.438362,1.52877 9.399039,-2e-5 16.136933,-1.86851 20.213703,-5.60548 4.18989,-3.737 6.28487,-9.6822 6.28494,-17.83563 l 0,-3.73698 m -0.16986,-65.56715 c -1.58546,-0.4529 -3.73706,-0.84924 -6.4548,-1.18904 -2.60463,-0.4529 -6.17175,-0.67938 -10.701376,-0.67946 -8.493197,8e-5 -15.06123,2.77451 -19.704118,8.32329 -4.529709,5.54893 -6.794548,12.90965 -6.794523,22.0822 -2.5e-5,5.09594 0.622805,9.45575 1.868494,13.07946 1.358876,3.62378 3.114126,6.62469 5.265755,9.00275 2.264807,2.3781 4.812751,4.13335 7.643839,5.26575 2.944251,1.13244 5.945162,1.69865 9.002744,1.69863 4.189902,2e-5 8.040125,-0.56619 11.550685,-1.69863 3.51044,-1.24564 6.28487,-2.66117 8.3233,-4.24658 l 0,-51.63837"
         style="font-variant:normal;font-stretch:normal;text-align:center;line-height:101.99999809%;text-anchor:middle;fill:#ffffff;font-family:Ubuntu;-inkscape-font-specification:Ubuntu"
         id="path6798"
         inkscape:connector-curvature="0" />
      <path
         d="m 171.66713,599.63922 -15.79726,0 0,-88.32881 15.79726,0 0,88.32881 m -7.98356,-104.29594 c -2.83107,1.1e-4 -5.26577,-0.90583 -7.30411,-2.71781 -1.92513,-1.925 -2.88769,-4.47294 -2.88768,-7.64383 -1e-5,-3.17066 0.96255,-5.66199 2.88768,-7.47398 2.03834,-1.92499 4.47304,-2.88755 7.30411,-2.88767 2.83102,1.2e-4 5.20911,0.96268 7.13425,2.88767 2.03832,1.81199 3.0575,4.30332 3.05753,7.47398 -3e-5,3.17089 -1.01921,5.71883 -3.05753,7.64383 -1.92514,1.81198 -4.30323,2.71792 -7.13425,2.71781"
         style="font-variant:normal;font-stretch:normal;text-align:center;line-height:101.99999809%;text-anchor:middle;fill:#ffffff;font-family:Ubuntu;-inkscape-font-specification:Ubuntu"
         id="path6800"
         inkscape:connector-curvature="0" />
      <path
         d="m 198.99917,513.85836 c 3.62373,-0.90585 8.43651,-1.86841 14.43836,-2.88767 6.0018,-1.01909 12.90955,-1.52868 20.7233,-1.52877 7.02095,9e-5 12.85291,1.01927 17.49589,3.05754 4.64286,1.9252 8.32322,4.69962 11.04111,8.32329 2.83097,3.51058 4.8127,7.75715 5.9452,12.73973 1.13234,4.98271 1.69855,10.47494 1.69863,16.47672 l 0,49.60002 -15.79726,0 0,-46.20276 c -7e-5,-5.43557 -0.39642,-10.07849 -1.18904,-13.92877 -0.67952,-3.85017 -1.86856,-6.96432 -3.56713,-9.34247 -1.69869,-2.37802 -3.96353,-4.07664 -6.79452,-5.0959 -2.83111,-1.13234 -6.34161,-1.69855 -10.53151,-1.69863 -1.69868,8e-5 -3.45393,0.0567 -5.26576,0.16987 -1.81191,0.11331 -3.56716,0.28318 -5.26575,0.50959 -1.58543,0.11331 -3.05757,0.28318 -4.41645,0.50958 -1.24569,0.22656 -2.15162,0.39643 -2.7178,0.50959 l 0,74.5699 -15.79727,0 0,-85.78086"
         style="font-variant:normal;font-stretch:normal;text-align:center;line-height:101.99999809%;text-anchor:middle;fill:#ffffff;font-family:Ubuntu;-inkscape-font-specification:Ubuntu"
         id="path6802"
         inkscape:connector-curvature="0" />
    </g>
    <path
       style="fill:#0f56d6;fill-opacity:1;stroke:none;filter:url(#filter7269)"
       d="m -555.48764,59.052627 0,350.906263 438.90626,0 0,-350.906263 -438.90626,0 z m 82.4688,16.03125 15.125,0 c 4.0766,8.49326 7.98165,17.09296 11.71871,25.812503 3.73691,8.60648 7.48168,17.67524 11.21875,27.1875 3.85014,9.51239 7.75518,19.60529 11.71875,30.25 3.96337,10.53154 8.22021,22.01214 12.75,34.46875 l -18,0 c -1.92521,-5.09589 -3.73896,-10.06808 -5.4375,-14.9375 -1.69872,-4.98263 -3.46946,-10.02908 -5.28125,-15.125 l -53.34376,0 -10.6875,30.0625 -17.1563,0 c 4.5297,-12.45661 8.7866,-23.93721 12.7501,-34.46875 3.9634,-10.64471 7.7942,-20.73761 11.5312,-30.25 3.8502,-9.51226 7.638,-18.58102 11.375,-27.1875 3.737,-8.719543 7.642,-17.319243 11.7188,-25.812503 z m 186.96871,2.03125 0,27.343753 33.46875,0 0,13.25 -33.46875,0 0,40.78125 c -3e-5,4.41647 0.35177,8.08698 1.03125,11.03125 0.67942,2.83107 1.70356,5.11389 3.0625,6.8125 1.35887,1.5854 3.05536,2.69556 5.09375,3.375 2.03832,0.67946 4.40715,1.03126 7.125,1.03125 4.75612,1e-5 8.5439,-0.51206 11.375,-1.53125 2.94423,-1.13241 4.99252,-1.92202 6.125,-2.375 l 3.0625,13.09375 c -1.58545,0.7927 -4.34909,1.74258 -8.3125,2.875 -3.96352,1.24566 -8.49791,1.875 -13.59375,1.875 -6.00187,0 -11.00531,-0.7466 -14.96875,-2.21875 -3.85025,-1.58539 -6.93444,-3.91121 -9.3125,-6.96875 -2.3781,-3.05753 -4.10584,-6.77105 -5.125,-11.1875 -0.90595,-4.52966 -1.34376,-9.76763 -1.34375,-15.65625 l 0,-78.812503 15.78125,-2.71875 z m -179.81251,16.8125 c -3.9635,8.493243 -7.7513,17.401733 -11.375,26.687503 -3.5105,9.17267 -7.0208,18.67924 -10.5312,28.53125 l 43.81246,0 c -3.62382,-9.85201 -7.25132,-19.35858 -10.87496,-28.53125 -3.5106,-9.28577 -7.1811,-18.19426 -11.0313,-26.687503 z m 267.59376,8.343753 c 6.00177,9e-5 11.5603,1.1415 16.65625,3.40625 5.09582,2.15168 9.43868,5.23587 13.0625,9.3125 3.7369,4.07679 6.61781,9.00597 8.65625,14.78125 2.03827,5.66216 3.06241,11.96729 3.0625,18.875 -9e-5,7.02104 -1.02423,13.36918 -3.0625,19.03125 -2.03844,5.66212 -4.91935,10.51705 -8.65625,14.59375 -3.62382,4.07672 -7.96668,7.23516 -13.0625,9.5 -5.09595,2.1516 -10.65448,3.25 -16.65625,3.25 -6.00187,0 -11.5604,-1.0984 -16.65625,-3.25 -5.09592,-2.26484 -9.51304,-5.42328 -13.25,-9.5 -3.62376,-4.0767 -6.46166,-8.93163 -8.5,-14.59375 -2.03837,-5.66207 -3.03126,-12.01021 -3.03125,-19.03125 -1e-5,-6.90771 0.99288,-13.21284 3.03125,-18.875 2.03834,-5.77528 4.87624,-10.70446 8.5,-14.78125 3.73696,-4.07663 8.15408,-7.16082 13.25,-9.3125 5.09585,-2.26475 10.65438,-3.40616 16.65625,-3.40625 z m -201.09375,2.1875 15.78125,0 0,46.21875 c -3e-5,10.75803 1.69646,18.45085 5.09375,23.09375 3.39722,4.64294 9.11602,6.96876 17.15625,6.96875 1.69858,1e-5 3.46932,-0.043 5.28125,-0.15625 1.81182,-0.11323 3.5083,-0.2305 5.09375,-0.34375 1.58533,-0.22647 3.00427,-0.41799 4.25,-0.53125 1.35884,-0.22647 2.30872,-0.42975 2.875,-0.65625 l 0,-74.59375 15.8125,0 0,85.78125 c -3.62383,0.90594 -8.43575,1.88707 -14.4375,2.90625 -5.88865,1.01918 -12.74885,1.53125 -20.5625,1.53125 -6.79457,0 -12.51336,-0.98114 -17.15625,-2.90625 -4.64295,-2.03835 -8.38772,-4.845 -11.21875,-8.46875 -2.83107,-3.62373 -4.8481,-7.88057 -6.09375,-12.75 -1.24568,-4.98262 -1.87501,-10.46689 -1.875,-16.46875 l 0,-49.625 z m 201.09375,11.75 c -7.7005,8e-5 -13.8141,2.92399 -18.34375,8.8125 -4.41647,5.77541 -6.62503,13.65975 -6.625,23.625 -3e-5,9.96534 2.20853,17.89269 6.625,23.78125 4.52965,5.77536 10.64325,8.65626 18.34375,8.65625 7.7004,1e-5 13.771,-2.88089 18.1875,-8.65625 4.52961,-5.88856 6.78117,-13.81591 6.78125,-23.78125 -8e-5,-9.96525 -2.25164,-17.84959 -6.78125,-23.625 -4.4165,-5.88851 -10.4871,-8.81242 -18.1875,-8.8125 z m -43.3125,124.84375 c 2.83103,1.3e-4 5.19986,0.95001 7.125,2.875 2.03833,1.81199 3.06247,4.29809 3.0625,7.46875 -3e-5,3.17089 -1.02417,5.73124 -3.0625,7.65625 -1.92514,1.81198 -4.29397,2.71885 -7.125,2.71875 -2.83107,10e-5 -5.27416,-0.90677 -7.3125,-2.71875 -1.92513,-1.92501 -2.87501,-4.48536 -2.875,-7.65625 -1e-5,-3.17066 0.94987,-5.65676 2.875,-7.46875 2.03834,-1.92499 4.48143,-2.87487 7.3125,-2.875 z m -291.43756,7.28125 16.4688,0 0,103.46876 54.3438,0 0,14.25 -70.8126,0 0,-117.71876 z m 121.75006,27.1875 c 6.00177,9e-5 11.5603,1.1415 16.65625,3.40625 5.09582,2.15168 9.43868,5.26712 13.0625,9.34375 3.7369,4.07679 6.64906,9.00598 8.6875,14.78126 2.03827,5.66216 3.03116,11.93604 3.03125,18.84375 -9e-5,7.02104 -0.99298,13.36918 -3.03125,19.03125 -2.03844,5.66212 -4.9506,10.51705 -8.6875,14.59375 -3.62382,4.07672 -7.96668,7.26641 -13.0625,9.53125 -5.09595,2.1516 -10.65448,3.21875 -16.65625,3.21875 -6.00187,0 -11.5604,-1.06715 -16.65625,-3.21875 -5.09592,-2.26484 -9.51304,-5.45453 -13.25,-9.53125 -3.62376,-4.0767 -6.43041,-8.93163 -8.46875,-14.59375 -2.03837,-5.66207 -3.06246,-12.01021 -3.06246,-19.03125 0,-6.90771 1.02409,-13.18159 3.06246,-18.84375 2.03834,-5.77528 4.84499,-10.70447 8.46875,-14.78126 3.73696,-4.07663 8.15408,-7.19207 13.25,-9.34375 5.09585,-2.26475 10.65438,-3.40616 16.65625,-3.40625 z m 101.5625,0.34375 c 7.36067,9e-5 13.75182,0.55517 19.1875,1.6875 5.54878,1.01927 10.20043,2.0004 13.9375,2.90625 l 0,78.81251 c -8e-5,13.58904 -3.51032,23.44741 -10.53125,29.5625 -7.02107,6.11504 -17.66906,9.15622 -31.9375,9.15625 -5.5489,-3e-5 -10.82988,-0.43785 -15.8125,-1.34375 -4.86943,-0.90597 -9.09502,-2.00437 -12.71875,-3.25 l 2.875,-13.75 c 3.17076,1.24565 7.03279,2.3128 11.5625,3.21875 4.64289,1.01916 9.45481,1.53123 14.4375,1.53125 9.39904,-2e-5 16.14198,-1.85678 20.21875,-5.59375 4.18989,-3.737 6.28118,-9.69033 6.28125,-17.84375 l 0,-3.71875 c -1.35897,0.90594 -4.03659,2.09036 -8,3.5625 -3.85029,1.35891 -8.38467,2.03125 -13.59375,2.03125 -5.32242,0 -10.33762,-0.83262 -15.09375,-2.53125 -4.64295,-1.69862 -8.73952,-4.33324 -12.25,-7.84375 -3.51052,-3.62373 -6.27416,-8.08385 -8.3125,-13.40625 -2.03837,-5.32234 -3.06251,-11.67048 -3.0625,-19.03125 -10e-6,-6.45474 0.94988,-12.33382 2.875,-17.65625 1.9251,-5.43555 4.71999,-10.08721 8.34375,-13.93751 3.73696,-3.96339 8.27135,-7.00457 13.59375,-9.15625 5.32234,-2.26475 11.31867,-3.40616 18,-3.40625 z m 138.59375,0 c 7.02095,9e-5 12.85701,1.02423 17.5,3.0625 4.64285,1.9252 8.34462,4.68884 11.0625,8.3125 2.83097,3.51058 4.805,7.76742 5.9375,12.75001 1.13234,4.98271 1.68742,10.46698 1.6875,16.46875 l 0,49.59375 -15.78125,0 0,-46.1875 c -7e-5,-5.43557 -0.39487,-10.08721 -1.1875,-13.9375 -0.67952,-3.85017 -1.86394,-6.9656 -3.5625,-9.34375 -1.69869,-2.37802 -3.98151,-4.07451 -6.8125,-5.09376 -2.83111,-1.13234 -6.34135,-1.68742 -10.53125,-1.6875 -1.69868,8e-5 -3.43817,0.0431 -5.25,0.15625 -1.81191,0.11332 -3.58266,0.27359 -5.28125,0.5 -1.58542,0.11332 -3.04738,0.30484 -4.40625,0.53125 -1.24569,0.22656 -2.15257,0.38683 -2.71875,0.5 l 0,74.56251 -15.8125,0 0,-85.78126 c 3.62373,-0.90585 8.43565,-1.85573 14.4375,-2.875 6.00179,-1.01909 12.90501,-1.53116 20.71875,-1.53125 z m -78.28125,1.875 15.8125,0 0,88.31251 -15.8125,0 0,-88.31251 z m -161.875,11.71875 c -7.7005,8e-5 -13.8141,2.95524 -18.34375,8.84376 -4.41647,5.77541 -6.62503,13.6285 -6.625,23.59375 -3e-5,9.96534 2.20853,17.89269 6.625,23.78125 4.52965,5.77536 10.64325,8.65626 18.34375,8.65625 7.7004,1e-5 13.771,-2.88089 18.1875,-8.65625 4.52961,-5.88856 6.78117,-13.81591 6.78125,-23.78125 -8e-5,-9.96525 -2.25164,-17.81834 -6.78125,-23.59375 -4.4165,-5.88852 -10.4871,-8.84368 -18.1875,-8.84376 z m 101.71875,0.34375 c -8.4932,8e-5 -15.04461,2.76371 -19.6875,8.31251 -4.52971,5.54892 -6.81253,12.9212 -6.8125,22.09375 -3e-5,5.09593 0.62931,9.43879 1.875,13.0625 1.35888,3.62377 3.12962,6.62194 5.28125,9 2.26481,2.3781 4.79391,4.14885 7.625,5.28125 2.94425,1.13244 5.94242,1.68752 9,1.6875 4.1899,2e-5 8.05194,-0.55506 11.5625,-1.6875 3.51044,-1.24564 6.27408,-2.66459 8.3125,-4.25 l 0,-51.62501 c -1.58546,-0.45289 -3.71976,-0.87895 -6.4375,-1.21875 -2.60463,-0.45289 -6.18912,-0.65617 -10.71875,-0.65625 z"
       id="rect7068"
       inkscape:connector-curvature="0" />
    <text
       xml:space="preserve"
       style="font-size:169.86308289px;font-style:normal;font-variant:normal;font-weight:normal;font-stretch:normal;line-height:101.99999809%;letter-spacing:0px;word-spacing:0px;fill:#ffffff;fill-opacity:1;stroke:none;filter:url(#filter6900);font-family:Ubuntu;-inkscape-font-specification:Ubuntu"
       x="75.046722"
       y="-480.30429"
       id="text5741-4-7-9"
       sodipodi:linespacing="102%"><tspan
         sodipodi:role="line"
         id="tspan5743-3-3-5"
         x="75.046722"
         y="-480.30429"
         style="font-style:normal;font-variant:normal;font-weight:normal;font-stretch:normal;text-align:center;line-height:101.99999809%;text-anchor:middle;fill:#ffffff;fill-opacity:1;font-family:Ubuntu;-inkscape-font-specification:Ubuntu">Auto</tspan><tspan
         sodipodi:role="line"
         x="75.046722"
         y="-307.04395"
         id="tspan5745-6-2-4"
         style="font-style:normal;font-variant:normal;font-weight:normal;font-stretch:normal;text-align:center;line-height:101.99999809%;text-anchor:middle;fill:#ffffff;fill-opacity:1;font-family:Ubuntu;-inkscape-font-specification:Ubuntu">Login</tspan></text>
    <path
       style="fill:url(#linearGradient7163);fill-opacity:1;stroke:none"
       d="m -543.07975,18.401203 c -13.43757,0 -24.24997,12.02257 -24.24997,26.96875 l 0,383.374987 c 0,14.9462 10.8124,26.9688 24.24997,26.9688 l 406.15623,0 c 13.43759,0 24.25,-12.0226 24.25,-26.9688 l 0,-383.374987 c 0,-14.94618 -10.81241,-26.96875 -24.25,-26.96875 l -406.15623,0 z m 69,57.875 15.125,0 c 4.07665,8.49326 7.98169,17.09296 11.71875,25.812497 3.73691,8.60648 7.48168,17.67524 11.21875,27.1875 3.85014,9.51239 7.75518,19.57404 11.71875,30.21875 3.96337,10.53154 8.18896,22.04339 12.71875,34.5 l -18,0 c -1.92521,-5.09589 -3.73896,-10.09933 -5.4375,-14.96875 -1.69872,-4.98263 -3.43821,-9.99783 -5.25,-15.09375 l -53.34375,0 -10.71875,30.0625 -17.15625,0 c 4.52968,-12.45661 8.78652,-23.96846 12.75,-34.5 3.96345,-10.64471 7.82549,-20.70636 11.5625,-30.21875 3.8502,-9.51226 7.63798,-18.58102 11.375,-27.1875 3.73695,-8.719537 7.64199,-17.319237 11.71875,-25.812497 z m 186.96875,2.03125 0,27.343747 33.46875,0 0,13.25 -33.46875,0 0,40.78125 c -3e-5,4.41647 0.35177,8.08698 1.03125,11.03125 0.67942,2.83107 1.67231,5.11389 3.03125,6.8125 1.35887,1.5854 3.08661,2.69556 5.125,3.375 2.03832,0.67946 4.40715,1.03126 7.125,1.03125 4.75612,1e-5 8.5439,-0.51206 11.375,-1.53125 2.94423,-1.13241 4.99252,-1.92202 6.125,-2.375 l 3.0625,13.0625 c -1.58545,0.7927 -4.38034,1.77383 -8.34375,2.90625 -3.96352,1.24566 -8.49791,1.875 -13.59375,1.875 -6.00187,0 -10.97406,-0.7466 -14.9375,-2.21875 -3.85025,-1.58539 -6.96569,-3.91121 -9.34375,-6.96875 -2.3781,-3.05753 -4.07459,-6.8023 -5.09375,-11.21875 -0.90595,-4.52966 -1.37501,-9.73638 -1.375,-15.625 l 0,-78.812497 15.8125,-2.71875 z m -179.84375,16.8125 c -3.96352,8.493237 -7.7513,17.401727 -11.375,26.687497 -3.51054,9.17267 -7.02078,18.67924 -10.53125,28.53125 l 43.8125,0 c -3.62382,-9.85201 -7.22007,-19.35858 -10.84375,-28.53125 -3.51057,-9.28577 -7.21233,-18.19426 -11.0625,-26.687497 z M -199.361,103.4637 c 6.00177,9e-5 11.56029,1.11025 16.65624,3.375 5.09583,2.15168 9.46993,5.26712 13.09375,9.34375 3.73691,4.07679 6.61781,9.00597 8.65625,14.78125 2.03827,5.66216 3.06241,11.96729 3.0625,18.875 -9e-5,7.02104 -1.02423,13.33793 -3.0625,19 -2.03844,5.66212 -4.91934,10.5483 -8.65625,14.625 -3.62382,4.07672 -7.99792,7.23516 -13.09375,9.5 -5.09595,2.1516 -10.65447,3.21875 -16.65624,3.21875 -6.00187,0 -11.52915,-1.06715 -16.625,-3.21875 -5.09592,-2.26484 -9.51304,-5.42328 -13.25,-9.5 -3.62376,-4.0767 -6.46166,-8.96288 -8.5,-14.625 -2.03837,-5.66207 -3.06251,-11.97896 -3.0625,-19 -1e-5,-6.90771 1.02413,-13.21284 3.0625,-18.875 2.03834,-5.77528 4.87624,-10.70446 8.5,-14.78125 3.73696,-4.07663 8.15408,-7.19207 13.25,-9.34375 5.09585,-2.26475 10.62313,-3.37491 16.625,-3.375 z m -201.09375,2.1875 15.8125,0 0,46.21875 c -3e-5,10.75803 1.69646,18.45085 5.09375,23.09375 3.39722,4.64294 9.11602,6.96876 17.15625,6.96875 1.69858,1e-5 3.43807,-0.0743 5.25,-0.1875 1.81182,-0.11323 3.5083,-0.19925 5.09375,-0.3125 1.58533,-0.22647 3.00427,-0.41799 4.25,-0.53125 1.35884,-0.22647 2.33997,-0.42975 2.90625,-0.65625 l 0,-74.59375 15.78125,0 0,85.78125 c -3.62383,0.90594 -8.43575,1.88707 -14.4375,2.90625 -5.88865,1.01918 -12.74885,1.53125 -20.5625,1.53125 -6.79457,0 -12.51336,-0.98114 -17.15625,-2.90625 -4.64295,-2.03835 -8.35647,-4.87625 -11.1875,-8.5 -2.83107,-3.62373 -4.87935,-7.84932 -6.125,-12.71875 -1.24568,-4.98262 -1.87501,-10.46689 -1.875,-16.46875 l 0,-49.625 z m 201.09375,11.71875 c -7.7005,8e-5 -13.8141,2.95524 -18.34375,8.84375 -4.41647,5.77541 -6.62503,13.65975 -6.625,23.625 -3e-5,9.96534 2.20853,17.89269 6.625,23.78125 4.52965,5.77536 10.64325,8.65626 18.34375,8.65625 7.7004,1e-5 13.77099,-2.88089 18.18749,-8.65625 4.52961,-5.88856 6.78118,-13.81591 6.78125,-23.78125 -7e-5,-9.96525 -2.25164,-17.84959 -6.78125,-23.625 -4.4165,-5.88851 -10.48709,-8.84367 -18.18749,-8.84375 z m -43.28125,124.875 c 2.83103,1.3e-4 5.19986,0.95001 7.125,2.875 2.03833,1.81199 3.06247,4.29809 3.0625,7.46875 -3e-5,3.17089 -1.02417,5.73124 -3.0625,7.65625 -1.92514,1.81198 -4.29397,2.71885 -7.125,2.71875 -2.83107,10e-5 -5.27416,-0.90677 -7.3125,-2.71875 -1.92513,-1.92501 -2.87501,-4.48536 -2.875,-7.65625 -1e-5,-3.17066 0.94987,-5.65676 2.875,-7.46875 2.03834,-1.92499 4.48143,-2.87487 7.3125,-2.875 z m -291.46875,7.28125 16.5,0 0,103.46874 54.34375,0 0,14.25 -70.84375,0 0,-117.71874 z m 121.78125,27.18749 c 6.00177,9e-5 11.52905,1.1415 16.625,3.40625 5.09582,2.15168 9.46993,5.26712 13.09375,9.34375 3.7369,4.07679 6.61781,9.00597 8.65625,14.78125 2.03827,5.66216 3.06241,11.93604 3.0625,18.84375 -9e-5,7.02104 -1.02423,13.36918 -3.0625,19.03125 -2.03844,5.66212 -4.91935,10.51705 -8.65625,14.59375 -3.62382,4.07672 -7.99793,7.26641 -13.09375,9.53125 -5.09595,2.1516 -10.62323,3.21875 -16.625,3.21875 -6.00187,0 -11.5604,-1.06715 -16.65625,-3.21875 -5.09592,-2.26484 -9.51304,-5.45453 -13.25,-9.53125 -3.62376,-4.0767 -6.46166,-8.93163 -8.5,-14.59375 -2.03837,-5.66207 -3.06251,-12.01021 -3.0625,-19.03125 -1e-5,-6.90771 1.02413,-13.18159 3.0625,-18.84375 2.03834,-5.77528 4.87624,-10.70446 8.5,-14.78125 3.73696,-4.07663 8.15408,-7.19207 13.25,-9.34375 5.09585,-2.26475 10.65438,-3.40616 16.65625,-3.40625 z m 101.53125,0.34375 c 7.36067,9e-5 13.78307,0.55517 19.21875,1.6875 5.54878,1.01927 10.16918,2.0004 13.90625,2.90625 l 0,78.8125 c -8e-5,13.58904 -3.51032,23.44741 -10.53125,29.56253 -7.02107,6.115 -17.66906,9.1562 -31.9375,9.1562 -5.5489,0 -10.79863,-0.4378 -15.78125,-1.3437 -4.86943,-0.906 -9.12627,-2.0044 -12.75,-3.25 l 2.90625,-13.75003 c 3.17076,1.24565 7.00154,2.3128 11.53125,3.21875 4.64289,1.01916 9.45481,1.53123 14.4375,1.53125 9.39904,-2e-5 16.14198,-1.85678 20.21875,-5.59375 4.18989,-3.737 6.28118,-9.69033 6.28125,-17.84375 l 0,-3.71875 c -1.35897,0.90594 -4.00534,2.09036 -7.96875,3.5625 -3.85029,1.35891 -8.38467,2.03125 -13.59375,2.03125 -5.32242,0 -10.36887,-0.86387 -15.125,-2.5625 -4.64295,-1.69862 -8.70827,-4.30199 -12.21875,-7.8125 -3.51052,-3.62373 -6.30541,-8.08385 -8.34375,-13.40625 -2.03837,-5.32234 -3.03126,-11.67048 -3.03125,-19.03125 -1e-5,-6.45474 0.94988,-12.33382 2.875,-17.65625 1.9251,-5.43555 4.68874,-10.0872 8.3125,-13.9375 3.73696,-3.96339 8.27135,-7.00457 13.59375,-9.15625 5.32234,-2.26475 11.31867,-3.40616 18,-3.40625 z m 138.62499,0 c 7.02096,9e-5 12.85702,1.02423 17.5,3.0625 4.64286,1.9252 8.31336,4.68884 11.03124,8.3125 2.83098,3.51058 4.805,7.76742 5.9375,12.75 1.13234,4.98271 1.71867,10.46698 1.71875,16.46875 l 0,49.59375 -15.81249,0 0,-46.1875 c -6e-5,-5.43557 -0.39487,-10.08721 -1.1875,-13.9375 -0.67952,-3.85017 -1.86393,-6.9656 -3.5625,-9.34375 -1.69869,-2.37801 -3.95025,-4.0745 -6.78125,-5.09375 -2.8311,-1.13234 -6.34134,-1.68742 -10.53125,-1.6875 -1.69867,8e-5 -3.46942,0.0431 -5.28125,0.15625 -1.81191,0.11332 -3.5514,0.27359 -5.25,0.5 -1.58542,0.11332 -3.07862,0.30484 -4.4375,0.53125 -1.24569,0.22656 -2.15257,0.38683 -2.71875,0.5 l 0,74.5625 -15.78124,0 0,-85.78125 c 3.62373,-0.90585 8.43565,-1.85573 14.43749,-2.875 6.0018,-1.01909 12.90501,-1.53116 20.71875,-1.53125 z m -78.28124,1.875 15.78125,0 0,88.3125 -15.78125,0 0,-88.3125 z m -161.875,11.71875 c -7.7005,8e-5 -13.8141,2.92399 -18.34375,8.8125 -4.41647,5.77541 -6.62503,13.65975 -6.625,23.625 -3e-5,9.96534 2.20853,17.89269 6.625,23.78125 4.52965,5.77536 10.64325,8.65626 18.34375,8.65625 7.7004,1e-5 13.73975,-2.88089 18.15625,-8.65625 4.52961,-5.88856 6.81242,-13.81591 6.8125,-23.78125 -8e-5,-9.96525 -2.28289,-17.84959 -6.8125,-23.625 -4.4165,-5.88851 -10.45585,-8.81242 -18.15625,-8.8125 z m 101.71875,0.34375 c -8.4932,8e-5 -15.07586,2.76371 -19.71875,8.3125 -4.52971,5.54892 -6.78128,12.9212 -6.78125,22.09375 -3e-5,5.09593 0.62931,9.43879 1.875,13.0625 1.35888,3.62377 3.09837,6.62194 5.25,9 2.26481,2.3781 4.82516,4.14885 7.65625,5.28125 2.94425,1.13244 5.94242,1.68752 9,1.6875 4.1899,2e-5 8.02069,-0.55506 11.53125,-1.6875 3.51044,-1.24564 6.30533,-2.66459 8.34375,-4.25 l 0,-51.65625 c -1.58546,-0.45289 -3.75101,-0.8477 -6.46875,-1.1875 -2.60463,-0.45289 -6.15787,-0.65617 -10.6875,-0.65625 z"
       id="rect5717-2"
       inkscape:connector-curvature="0" />
    <rect
       style="fill:#0f56d6;fill-opacity:1;stroke:#000000;stroke-width:1.42142963;stroke-linecap:butt;stroke-miterlimit:4;stroke-opacity:1;stroke-dasharray:none;stroke-dashoffset:0"
       id="rect7068-5"
       width="438.90552"
       height="350.90146"
       x="-615.6792"
       y="-777.80554" />
    <text
       xml:space="preserve"
       style="font-size:169.86308289px;font-style:normal;font-variant:normal;font-weight:normal;font-stretch:normal;line-height:101.99999809%;letter-spacing:0px;word-spacing:0px;fill:#ffffff;fill-opacity:1;stroke:none;filter:url(#filter6900);font-family:Ubuntu;-inkscape-font-specification:Ubuntu"
       x="-395.1557"
       y="-644.04749"
       id="text5741-4-7-7"
       sodipodi:linespacing="102%"><tspan
         sodipodi:role="line"
         id="tspan5743-3-3-6"
         x="-395.1557"
         y="-644.04749"
         style="font-style:normal;font-variant:normal;font-weight:normal;font-stretch:normal;text-align:center;line-height:101.99999809%;text-anchor:middle;fill:#ffffff;fill-opacity:1;font-family:Ubuntu;-inkscape-font-specification:Ubuntu">Auto</tspan><tspan
         sodipodi:role="line"
         x="-395.1557"
         y="-470.78717"
         id="tspan5745-6-2-1"
         style="font-style:normal;font-variant:normal;font-weight:normal;font-stretch:normal;text-align:center;line-height:101.99999809%;text-anchor:middle;fill:#ffffff;fill-opacity:1;font-family:Ubuntu;-inkscape-font-specification:Ubuntu">Login</tspan></text>
    <rect
       style="fill:url(#linearGradient7222);fill-opacity:1;stroke:url(#linearGradient7224);stroke-width:2;stroke-linecap:butt;stroke-miterlimit:4;stroke-opacity:1;stroke-dasharray:none;stroke-dashoffset:0"
       id="rect5717-22"
       width="454.67081"
       height="437.32666"
       x="28.664597"
       y="577.69885"
       rx="24.255575"
       ry="26.97867" />
    <text
       sodipodi:linespacing="102%"
       id="text7018-5"
       y="1225.682"
       x="267.87177"
       style="font-size:169.86308289px;font-style:normal;font-variant:normal;font-weight:normal;font-stretch:normal;line-height:101.99999809%;letter-spacing:0px;word-spacing:0px;fill:#062f9f;fill-opacity:1;stroke:none;filter:url(#filter7036-1);font-family:Ubuntu;-inkscape-font-specification:Ubuntu"
       xml:space="preserve"><tspan
         style="font-style:normal;font-variant:normal;font-weight:normal;font-stretch:normal;text-align:center;line-height:101.99999809%;text-anchor:middle;fill:#062f9f;fill-opacity:1;font-family:Ubuntu;-inkscape-font-specification:Ubuntu"
         y="1225.682"
         x="267.87177"
         id="tspan7020-8"
         sodipodi:role="line">Auto</tspan><tspan
         style="font-style:normal;font-variant:normal;font-weight:normal;font-stretch:normal;text-align:center;line-height:101.99999809%;text-anchor:middle;fill:#062f9f;fill-opacity:1;font-family:Ubuntu;-inkscape-font-specification:Ubuntu"
         id="tspan7022-1"
         y="1398.9423"
         x="267.87177"
         sodipodi:role="line">Login</tspan></text>
    <text
       xml:space="preserve"
       style="font-size:169.86308289px;font-style:normal;font-variant:normal;font-weight:normal;font-stretch:normal;line-height:101.99999809%;letter-spacing:0px;word-spacing:0px;fill:url(#linearGradient7300);fill-opacity:1;stroke:none;filter:url(#filter6900);font-family:Ubuntu;-inkscape-font-specification:Ubuntu"
       x="267.87177"
       y="1225.682"
       id="text5741-4-0"
       sodipodi:linespacing="102%"><tspan
         sodipodi:role="line"
         id="tspan5743-3-3"
         x="267.87177"
         y="1225.682"
         style="font-style:normal;font-variant:normal;font-weight:normal;font-stretch:normal;text-align:center;line-height:101.99999809%;text-anchor:middle;fill:url(#linearGradient7300);fill-opacity:1;font-family:Ubuntu;-inkscape-font-specification:Ubuntu">Auto</tspan><tspan
         sodipodi:role="line"
         x="267.87177"
         y="1398.9423"
         id="tspan5745-6-9"
         style="font-style:normal;font-variant:normal;font-weight:normal;font-stretch:normal;text-align:center;line-height:101.99999809%;text-anchor:middle;fill:url(#linearGradient7300);fill-opacity:1;font-family:Ubuntu;-inkscape-font-specification:Ubuntu">Login</tspan></text>
    <path
       inkscape:connector-curvature="0"
       id="path7318"
       d="m 418.85321,648.15395 -107.03069,36.52098 0,78.52855 -67.69607,-39.13765 0,38.68746 -150.979657,0 0,77.37499 150.979657,0 0,38.71563 67.69607,-39.13766 0,73.43588 107.03069,31.42829 0,-296.41647 z"
       style="fill:none;stroke:#203ed2;stroke-width:30.52117919999999884;stroke-linecap:butt;stroke-miterlimit:4;stroke-opacity:1;stroke-dasharray:none;filter:url(#filter7332)" />
    <path
       style="fill:none;stroke:url(#linearGradient7342);stroke-width:30.5211792;stroke-linecap:butt;stroke-miterlimit:4;stroke-opacity:1;stroke-dasharray:none"
       d="m 418.85321,648.15395 -107.03069,36.52098 0,78.52855 -67.69607,-39.13765 0,38.68746 -150.979657,0 0,77.37499 150.979657,0 0,38.71563 67.69607,-39.13766 0,73.43588 107.03069,31.42829 0,-296.41647 z"
       id="rect3807"
       inkscape:connector-curvature="0" />
    <text
       sodipodi:linespacing="102%"
       id="text7018"
       y="284.92892"
       x="-266.36023"
       style="font-size:169.86308289px;font-style:normal;font-variant:normal;font-weight:normal;font-stretch:normal;line-height:101.99999809%;letter-spacing:0px;word-spacing:0px;fill:#062f9f;fill-opacity:1;stroke:none;filter:url(#filter7289);font-family:Ubuntu;-inkscape-font-specification:Ubuntu"
       xml:space="preserve"><tspan
         style="font-style:normal;font-variant:normal;font-weight:normal;font-stretch:normal;text-align:center;line-height:101.99999809%;text-anchor:middle;fill:#062f9f;fill-opacity:1;font-family:Ubuntu;-inkscape-font-specification:Ubuntu"
         y="284.92892"
         x="-266.36023"
         id="tspan7020"
         sodipodi:role="line">Auto</tspan><tspan
         style="font-style:normal;font-variant:normal;font-weight:normal;font-stretch:normal;text-align:center;line-height:101.99999809%;text-anchor:middle;fill:#062f9f;fill-opacity:1;font-family:Ubuntu;-inkscape-font-specification:Ubuntu"
         id="tspan7022"
         y="458.18924"
         x="-266.36023"
         sodipodi:role="line">Login</tspan></text>
    <text
       xml:space="preserve"
       style="font-size:169.86308289px;font-style:normal;font-variant:normal;font-weight:normal;font-stretch:normal;line-height:101.99999809%;letter-spacing:0px;word-spacing:0px;fill:#ffffff;fill-opacity:1;stroke:none;filter:url(#filter6900);font-family:Ubuntu;-inkscape-font-specification:Ubuntu"
       x="-286.08154"
       y="398.70563"
       id="text5741-4"
       sodipodi:linespacing="102%"><tspan
         sodipodi:role="line"
         id="tspan5743-3"
         x="-286.08154"
         y="398.70563"
         style="font-style:normal;font-variant:normal;font-weight:normal;font-stretch:normal;text-align:center;line-height:101.99999809%;text-anchor:middle;fill:#ffffff;fill-opacity:1;font-family:Ubuntu;-inkscape-font-specification:Ubuntu">Auto</tspan><tspan
         sodipodi:role="line"
         x="-286.08154"
         y="571.96594"
         id="tspan5745-6"
         style="font-style:normal;font-variant:normal;font-weight:normal;font-stretch:normal;text-align:center;line-height:101.99999809%;text-anchor:middle;fill:#ffffff;fill-opacity:1;font-family:Ubuntu;-inkscape-font-specification:Ubuntu">Login</tspan></text>
  </g>
</svg>
